<?xml version="1.0" encoding="UTF-8"?>
<svg id="Calque_2" data-name="Calque 2" xmlns="http://www.w3.org/2000/svg" viewBox="0 0 226.77 108.53">
  <defs>
    <style>
      .cls-1 {
        fill: none;
      }

      .cls-2 {
        fill: #021216;
      }
    </style>
  </defs>
  <g id="Calque_1-2" data-name="Calque 1">
    <g>
      <g>
        <g>
          <g>
            <path class="cls-2" d="m54.33,21.9c-2.64.07-4.15,2.4-4.15,4.87.08,6.67.08,13.34.08,20.01s0,13.34-.08,20.01c0,1.12.23,2.17.91,3.15.83,1.35,2.11,1.87,3.62,1.87v.6h-13.74v-.6c1.43,0,2.72-.45,3.55-1.72.53-.75.76-1.65.91-2.55v-16.41c-2.34.75-4.38,1.05-6.04,1.05-10.04,0-10.04-10.79-17.52-11.24v26.38c.15,2.4,1.59,4.42,4.15,4.5h.38v.6h-13.82v-.6h.15c2.64,0,4.08-1.87,4.3-4.27.07-.23.07-.45.07-.75V26.92c0-1.12-.3-2.32-.91-3.3-.68-.9-1.59-1.57-2.94-1.72h-.68v-.6h13.82v.6c-2.95,0-4.53,2.17-4.53,4.87v13.49c9.74,0,12.31,10.79,19.94,10.79,1.06,0,2.27-.23,3.62-.75v-23.38c0-2.77-1.44-5.02-4.46-5.02v-.6h13.74v.6h-.38Z"/>
            <path class="cls-2" d="m96.7,43.11c2.87-3.67,7.7-5.17,12.31-5.25,2.64,0,5.29.45,7.4,1.42.45.22.91.45,1.36.75,1.89,1.2,2.79,2.55,3.25,4.57.08.38.08.75.08,1.12,0,5.55-6.12,6.82-10.72,8.02-8.84,2.7-11.78,6.82-11.78,10.49v.45c.3,4.65,3.47,6.97,7.17,6.97.45,0,.83,0,1.28-.08,3.85-.52,9.51-4.95,9.51-9.14,0-.9-.23-1.72-.75-2.55,3.1-1.05,4.91-2.4,5.36-5.17v10.72c0,3.67,1.36,4.2,4.38,4.2v.6h-.53c-1.51,0-2.79.3-3.85.67-1.06.45-1.89,1.05-2.42,1.58h-.75c-.91-.52-1.44-2.32-1.59-5.32v-1.58c-2.11,3.97-6.19,6.9-11.25,6.97-2.27,0-4.38-.38-6.12-1.12-2.95-1.27-4.98-3.9-4.98-7.12v-.15c.08-3.45,1.96-6.45,4.98-8.09,5.66-3.07,17.37-1.72,17.37-9.89,0-5.25-2.72-7.64-7.93-7.64h-.38c-4.98,0-9.82,3.07-11.4,7.79v-3.22Z"/>
            <path class="cls-2" d="m141.25,72.26h-12.69v-.6c2.72,0,3.93-2.47,4-4.87V20.55c-.07-2.47-1.51-3.75-4-3.75v-.67c1.51,0,2.79-.08,4-.23,1.81-.3,3.17-.75,4.08-1.35h.68v52.46c.07,2.32,1.36,4.65,3.93,4.65v.6Z"/>
            <path class="cls-2" d="m149.1,56.97c0,.75.15,1.57.38,2.47,1.74,6.45,5.74,10.42,12.16,10.42.45,0,.98,0,1.43-.07,5.82-.45,11.25-3.52,12.69-11.47h.68c-1.06,7.64-6.87,14.24-15.93,14.46h-.3c-9.14,0-15.93-7.04-15.93-17.54v-.15c0-10.19,6.42-17.61,15.93-17.61h.3c3.78.08,7.32,1.12,10.12,3.52,1.89,1.5,3.93,3.9,3.93,6.45,0,.6-.07,1.12-.3,1.72-.61,1.65-4.46,1.8-8.99,1.8h-3.1c-3.32,0-6.72,0-9.14.9-2.34.9-3.93,2.47-3.93,5.1m3.78-5.62c6.27-2.17,16.99,1.2,17.22-5.17,0-1.2-.38-2.62-.98-3.45-1.51-2.85-5.13-4.42-8.98-4.42-5.66,0-11.86,3.67-12.08,12.67,0,1.35.3,4.65.53,5.92.15-3.22,2.11-4.8,4.3-5.55"/>
            <path class="cls-2" d="m205.51,48.13c0-2.7-.23-5.77-2.42-7.27-1.06-.68-2.34-1.05-3.78-1.05-1.59,0-3.32.45-4.98,1.12-2.57,1.2-4.61,3.45-6.12,5.77v20.54c.08,2.32,1.36,4.65,3.93,4.65v.6h-12.69v-.6c2.72,0,3.93-2.47,4-4.87v-22.93c0-2.55-1.43-3.9-4-3.97v-.6c2.34,0,6.19-.23,8.08-1.57h.68v8.02c1.21-2.32,2.87-3.82,4.61-5.17,2.12-1.72,4.61-2.77,7.17-2.85h.6c4.83,0,9.21,3.3,9.67,9.14v20.16c.07,2.32,1.28,4.57,3.85,4.65h.08v.6h-12.69v-.6c2.72,0,3.93-2.47,4-4.87v-18.89Z"/>
          </g>
          <g>
            <path class="cls-2" d="m134.21,80.3h.04l3.12,8.23h-6.4l3.24-8.23Zm-.49-.88l-5.85,14.55h.96l1.85-4.67h6.97l1.83,4.67h.96l-5.75-14.55h-.98Z"/>
            <path class="cls-1" d="m131.02.88h.04l3.12,8.23h-6.4l3.24-8.23Zm-.49-.88l-5.85,14.55h.96l1.85-4.67h6.97l1.83,4.67h.96l-5.75-14.55h-.98Z"/>
            <path class="cls-1" d="m146.32,94.85h.04l3.12,8.23h-6.4l3.24-8.23Zm-.49-.88l-5.85,14.55h.96l1.85-4.67h6.97l1.83,4.67h.96l-5.75-14.55h-.98Z"/>
            <path class="cls-1" d="m220.53,58.81h.04l3.12,8.23h-6.4l3.24-8.23Zm-.49-.88l-5.85,14.55h.96l1.85-4.67h6.97l1.83,4.67h.96l-5.75-14.55h-.98Z"/>
            <path class="cls-1" d="m6.34,58.81h.04l3.12,8.23H3.1l3.24-8.23Zm-.49-.88l-5.85,14.55h.96l1.85-4.67h6.97l1.83,4.67h.96l-5.75-14.55h-.98Z"/>
            <polygon class="cls-2" points="149.88 83.5 146.34 93.08 146.3 93.08 142.51 83.5 141.61 83.5 145.83 93.97 146.79 93.97 150.74 83.5 149.88 83.5"/>
            <path class="cls-2" d="m153.41,88.74c0-.75.11-1.45.32-2.11.21-.66.52-1.24.93-1.74.41-.5.91-.9,1.51-1.19.6-.29,1.28-.44,2.06-.44s1.46.15,2.06.44c.6.29,1.1.69,1.51,1.19.41.5.72,1.08.93,1.74.21.66.32,1.36.32,2.11s-.11,1.46-.32,2.12c-.21.67-.52,1.25-.93,1.74-.41.49-.91.89-1.51,1.18-.6.29-1.28.44-2.06.44s-1.46-.15-2.06-.44c-.6-.29-1.1-.69-1.51-1.18-.41-.5-.72-1.08-.93-1.74-.21-.66-.32-1.37-.32-2.12m.77,0c0,.63.09,1.23.26,1.8.18.58.43,1.09.77,1.54.34.45.76.8,1.26,1.07.5.27,1.08.4,1.73.4s1.23-.13,1.73-.4c.5-.26.92-.62,1.26-1.07.34-.45.6-.96.77-1.54.18-.58.27-1.18.27-1.8s-.09-1.23-.27-1.8c-.18-.58-.43-1.09-.77-1.54-.34-.45-.76-.81-1.26-1.07-.5-.26-1.08-.4-1.73-.4s-1.23.13-1.73.4c-.5.26-.93.62-1.26,1.07-.34.45-.6.96-.77,1.54-.18.58-.26,1.18-.26,1.8"/>
            <path class="cls-2" d="m174.79,86.74c-.04-.46-.16-.87-.36-1.22-.2-.35-.45-.65-.77-.88-.31-.23-.67-.41-1.09-.53-.42-.12-.86-.18-1.34-.18-.65,0-1.23.13-1.73.4-.5.26-.92.62-1.26,1.06-.34.44-.6.94-.77,1.51-.18.56-.26,1.15-.26,1.74,0,.71.08,1.36.24,1.96.16.6.42,1.12.75,1.56.34.44.76.78,1.26,1.03.5.24,1.09.37,1.77.37.49,0,.94-.08,1.36-.25.41-.16.78-.39,1.1-.67.32-.29.58-.63.78-1.03.2-.4.34-.84.41-1.31h.77c-.08.62-.25,1.18-.51,1.67-.26.49-.58.9-.98,1.23-.39.33-.84.59-1.35.77-.5.17-1.03.26-1.59.26-.85,0-1.59-.15-2.19-.46-.6-.3-1.1-.72-1.49-1.23-.39-.52-.67-1.11-.86-1.78-.18-.67-.28-1.38-.28-2.11s.11-1.43.32-2.08c.21-.65.52-1.22.93-1.71s.91-.88,1.51-1.16c.6-.29,1.28-.43,2.06-.43.57,0,1.1.07,1.6.21.49.14.94.36,1.32.64.39.29.7.65.95,1.09.24.44.39.96.45,1.54h-.77Z"/>
            <path class="cls-2" d="m186.49,91.89h-.04c-.12.31-.3.61-.53.89-.23.28-.51.53-.85.74-.33.22-.71.39-1.13.51-.42.12-.88.18-1.39.18-1.11,0-1.98-.24-2.59-.72-.61-.48-.92-1.23-.92-2.23,0-.61.12-1.11.37-1.5.24-.39.55-.69.93-.92.37-.22.79-.38,1.24-.48.46-.09.89-.16,1.32-.2l1.2-.1c.56-.04.99-.11,1.31-.19.32-.09.56-.21.72-.37.16-.16.27-.36.31-.6s.06-.55.06-.92c0-.28-.05-.55-.16-.79-.11-.24-.28-.46-.51-.65-.23-.19-.53-.34-.9-.45-.37-.11-.81-.16-1.35-.16-.94,0-1.69.23-2.27.69-.58.46-.89,1.16-.95,2.1h-.77c.05-1.16.42-2.02,1.11-2.6.69-.58,1.66-.87,2.93-.87s2.18.25,2.76.74c.58.5.87,1.15.87,1.95v6.09c0,.15,0,.3.01.45,0,.15.03.29.07.41.04.12.11.22.2.3.09.07.23.11.41.11.14,0,.33-.02.57-.06v.65c-.2.05-.42.08-.63.08-.31,0-.56-.04-.74-.12-.18-.08-.32-.19-.42-.33-.1-.14-.16-.29-.19-.48-.03-.18-.05-.38-.05-.6v-.55Zm0-3.87c-.19.23-.48.39-.87.47-.39.08-.82.14-1.29.18l-1.31.12c-.38.04-.76.1-1.14.17-.38.08-.72.2-1.03.38-.31.17-.55.42-.74.72-.19.3-.29.7-.29,1.19,0,.77.24,1.35.73,1.72.49.37,1.16.56,2.02.56s1.58-.16,2.1-.48c.52-.32.91-.69,1.18-1.1.27-.41.45-.81.52-1.2.07-.39.11-.65.11-.78v-1.96Z"/>
            <path class="cls-2" d="m195.64,84.17h-2.28v7.32c0,.42.05.75.14,1,.09.24.24.43.44.56.2.13.43.21.71.24.28.03.6.03.97.02v.67c-.39.03-.78.02-1.15-.01-.37-.03-.7-.14-.99-.31-.29-.17-.51-.42-.68-.76-.17-.34-.24-.81-.21-1.41v-7.32h-1.94v-.67h1.94v-3.26h.77v3.26h2.28v.67Z"/>
            <path class="cls-2" d="m199.49,90.49c.03.49.14.92.33,1.3.19.37.44.69.74.96.3.26.66.46,1.07.6.41.14.85.2,1.33.2.34,0,.7-.03,1.09-.09.39-.06.75-.17,1.08-.34.33-.16.61-.39.83-.68.22-.29.33-.66.33-1.11,0-.58-.18-1.03-.53-1.33-.35-.3-.8-.53-1.33-.69-.54-.16-1.11-.3-1.73-.4-.62-.1-1.2-.26-1.73-.46-.54-.2-.98-.49-1.34-.87-.35-.37-.53-.92-.53-1.64,0-.52.11-.95.35-1.3.23-.35.53-.62.89-.83.36-.2.76-.35,1.21-.44.45-.09.9-.13,1.35-.13.54,0,1.05.06,1.53.18.48.12.89.32,1.23.59.35.27.62.62.81,1.04.2.42.3.93.3,1.53h-.77c0-.48-.08-.88-.24-1.22-.16-.34-.37-.61-.65-.83-.28-.21-.61-.37-.99-.47-.38-.1-.79-.15-1.22-.15-.35,0-.71.03-1.07.1-.36.07-.68.18-.97.35-.29.16-.52.37-.7.63-.18.26-.28.57-.28.94,0,.42.1.76.3,1.02.2.26.47.47.81.62.33.16.71.28,1.12.38.41.09.83.19,1.25.29.52.1,1,.21,1.46.34.46.13.85.3,1.18.53.33.22.59.51.78.87.19.35.29.8.29,1.35,0,.57-.13,1.04-.39,1.41-.26.37-.58.66-.98.89-.39.22-.83.38-1.31.47-.48.09-.96.13-1.42.13-.6,0-1.15-.08-1.66-.23-.51-.16-.95-.39-1.34-.71-.38-.32-.68-.71-.9-1.17-.22-.46-.33-1-.35-1.61h.77Z"/>
            <path class="cls-2" d="m212.55,94.08c-.45,0-.83-.16-1.13-.48-.3-.32-.45-.73-.45-1.23h0c0-.51.15-.92.44-1.25.29-.32.68-.48,1.16-.48h.03c.52.02.91.18,1.18.5.26.32.4.72.43,1.22v.07c0,.43-.14.8-.43,1.12-.29.33-.67.51-1.18.53h-.04Z"/>
            <path class="cls-2" d="m212.25,90.75c-.21.05-.38.17-.52.36-.18.26-.26.61-.26,1.06,0,.35.05.65.15.93.1.29.24.51.43.67.07.06.14.11.21.15.13.06.26.09.42.1.19,0,.37-.06.52-.18.15-.12.28-.29.37-.53.1-.23.14-.51.14-.82,0-.35-.05-.65-.15-.91-.1-.26-.24-.47-.43-.62-.18-.15-.39-.22-.63-.22-.08,0-.16,0-.24.02"/>
          </g>
        </g>
        <rect class="cls-1" width="226.77" height="108.53"/>
      </g>
      <path class="cls-2" d="m93.57,33.2l-.04-.3c-.39-2.08-1.2-3.66-2.49-4.81-1.31-1.14-3.03-1.59-5.2-1.37l-.12.02c-1.98.28-3.51,1.17-4.54,2.67-1.03,1.53-1.4,3.31-1.11,5.37v.06c.3,2.09,1.19,3.7,2.62,4.83.1.08.2.14.3.21-2.11-1.22-4.65-1.99-7.66-2.33l-.3-.02c-4.9-.34-9,1.03-12.25,4.11-3.25,3.16-5.05,7.24-5.41,12.32v.15c-.37,5.16.91,9.46,3.77,12.88,2.86,3.43,6.59,5.34,11.26,5.66l.45.03c5.21.14,9.33-1.38,12.51-4.54,3.17-3.09,4.87-6.8,5.17-11.14l.05-.75c.14-5.17-1-9.39-3.49-12.79-.91-1.21-2-2.23-3.25-3.07,1.15.57,2.42.77,3.82.58l.18-.03c2.09-.38,3.61-1.34,4.6-2.87,1-1.5,1.36-3.12,1.11-4.88Zm-8.19,23.9c-.23,3.21-.88,6.02-2.02,8.27-1.07,2.33-2.48,4.04-4.15,5.12-1.67,1.09-3.52,1.56-5.48,1.5-1.58-.19-2.99-.58-4.23-1.27-.73-.43-1.44-1-2.08-1.65-1.77-1.78-3.04-4.12-3.89-7.11-.78-2.91-1.09-6.09-.84-9.6.32-4.56,1.48-8.09,3.47-10.58,1.57-1.84,3.39-2.92,5.61-3.29.76-.1,1.6-.11,2.43-.06,2.49.17,4.54,1.07,6.32,2.69,1.78,1.63,3.06,3.82,3.93,6.58.86,2.76,1.18,5.87.93,9.38Zm5.81-20.12c-.22.97-.61,1.73-1.15,2.27-.54.55-1.21.87-1.96,1.01-.61.06-1.18.02-1.7-.14-.31-.1-.63-.26-.92-.46-.81-.53-1.49-1.32-2.05-2.38-.53-1.04-.91-2.22-1.1-3.57-.25-1.75-.1-3.18.46-4.28.44-.82,1.04-1.38,1.86-1.69.28-.1.6-.17.91-.22.96-.13,1.81.04,2.61.51.81.47,1.47,1.2,2.02,2.18.55.98.92,2.13,1.11,3.48.17,1.24.16,2.35-.09,3.3Z"/>
    </g>
  </g>
</svg>